<svg width="200" height="115" xmlns="http://www.w3.org/2000/svg">

 <g>
  <title>background</title>
  <rect fill="none" id="canvas_background" height="402" width="582" y="-1" x="-1"/>
 </g>
 <g>
  <title>Layer 1</title>
  <g id="svg_1">
   <g id="svg_2">
    <path fill="#ffffff" id="svg_3" d="m46.4,6.9c-3.3,1.5 -5.3,7.7 -7.9,25.4c-2.2,15.3 -2.3,17.2 -1,19.8c3.2,6 10,7.4 14.5,2.9c1.6,-1.6 1.7,-2.4 0.4,-10.1c-0.7,-4.6 -1.1,-8.5 -0.9,-8.7c0.2,-0.2 2.4,3.7 4.9,8.7c5.7,11.2 9.2,13.5 13.6,9.1c1.5,-1.5 2,-3.3 2,-7c0,-4.1 -0.5,-5.5 -3,-8.3c-1.6,-1.9 -3,-4 -3,-4.6c0,-0.7 1.4,-2.4 3,-3.8c2.5,-2 3,-3.2 3,-6.6c0,-8.5 -1.2,-14.8 -3,-15.69999c-2.5,-1.30001 -20.1,-2.20001 -22.6,-1.10001zm14.2,13.7c0.8,3.2 -0.9,4.5 -5.1,4.2c-2.7,-0.3 -3,-0.7 -3.3,-4.2c-0.2,-2.4 0.2,-4.2 0.9,-4.7c2,-1.2 6.8,1.8 7.5,4.7z"/>
    <path fill="#ffffff" id="svg_4" d="m13.3,8.7c-1.9,1.7 -2.2,3.9 -3.6,27.3c-0.9,14 -1.4,25.6 -1.2,25.8c0.2,0.2 1.9,-0.7 3.7,-2.1c1.8,-1.4 6.5,-3.7 10.3,-5.2c9.2,-3.4 9.7,-4.2 7.8,-11.1l-1.6,-5.5l3.7,-3.4c2.9,-2.6 3.7,-4 3.4,-6.2c-0.3,-2.6 -0.7,-2.8 -5.3,-3.3c-6.7,-0.7 -6.7,-2.9 -0.1,-4.6c2.7,-0.7 5.2,-1.6 5.7,-2.1c0.5,-0.5 1,-3.1 1.1,-5.8l0.3,-5l-11.1,-0.3c-9.5,-0.2 -11.4,0 -13.1,1.5z"/>
    <path fill="#ffffff" id="svg_5" d="m83.8,7.9c-3.1,0.3 -6,0.9 -6.3,1.3c-0.4,0.40001 -1.1,10.3 -1.6,22c-0.6,17 -0.5,21.6 0.5,22.6c1,1.1 3.8,1 15.6,-0.2c7.9,-0.8 14.7,-1.9 15.3,-2.5c1.2,-1.2 0,-14.9 -1.7,-18.2c-1.1,-2.3 -1.6,-2.4 -8.6,-2.1c-6,0.3 -7.3,0.1 -6.3,-0.9c0.7,-0.6 2.9,-1.5 5,-1.8c3.2,-0.5 3.8,-1 3.8,-3.1c0,-2.2 -0.5,-2.5 -4.3,-2.8c-7.1,-0.5 -4.5,-2.6 3.9,-3.2l7.4,-0.5l0.3,-4.3c0.5,-6.4 -0.7,-7.2 -9.7,-7.1c-4.2,0.1 -10.2,0.5 -13.3,0.8z"/>
    <path fill="#ffffff" id="svg_6" d="m122,7.9c-4.2,1.3 -7,3.4 -9.2,6.9c-2,3.2 -2,4.2 -1.4,20.5c0.8,19.1 1,19.7 7.6,19.7c4.5,0 6,-1.5 6,-5.7c0,-2.2 0.5,-3.3 1.4,-3.3c1.8,0 2.6,1.2 3.2,4.7c0.3,1.5 0.7,3 1,3.5c0.8,1.3 9,0.9 10.2,-0.5c1.1,-1.4 3.2,-22.1 3.2,-32c0,-5.6 -0.4,-7 -2.6,-9.6c-3.7,-4.5 -12.4,-6.3 -19.4,-4.2zm7.6,25.1c0.6,5 -1.3,8.9 -3.6,7.5c-1.4,-0.9 -0.9,-15.2 0.6,-19c0.9,-2.1 1.6,0.8 3,11.5z"/>
    <path fill="#ffffff" id="svg_7" d="m152.7,8.2c-2.5,1.9 -6.7,44.2 -4.6,46.4c1.6,1.5 14,5.4 17.3,5.4c1.7,0 1.8,-0.6 1.3,-6.5c-0.7,-7.8 0.2,-7.7 4.2,0.3c3.4,6.7 5.3,8.5 10.3,10.1c2.3,0.8 5,2.8 6.9,5.2c1.7,2.1 3.5,3.9 4,3.9c0.5,0 0.9,-3.6 0.9,-8c0,-6.6 -0.5,-9 -2.4,-12.9c-2.6,-4.9 -7,-9.3 -12.5,-12.3c-4.5,-2.4 -4.6,-3.9 -1.2,-9.5c3.5,-5.7 3.7,-7 1.5,-10.1c-2,-2.8 -3.8,-2.8 -7.8,0.3c-1.8,1.4 -3.6,2.5 -3.9,2.5c-0.4,0 -0.7,-2.9 -0.7,-6.4c0,-9.19999 -0.3,-9.59999 -6.4,-9.59999c-2.9,0 -6,0.59999 -6.9,1.19999z"/>
    <path fill="#ffffff" id="svg_8" d="m22.5,58.5c-8.7,2.9 -12.5,6.7 -12.5,12.4c0,5.3 2.5,8 10.1,11.1c4.8,1.9 6.5,3.1 6.7,4.7c0.2,1.5 -0.4,2.4 -2,2.9c-3,1 -4.6,0.7 -7.9,-1.7c-4.1,-2.9 -5.6,-2.4 -8.9,2.8c-4.2,6.8 -4,8.5 2.1,12.4c7.3,4.6 14.8,5.2 22.2,1.5c3,-1.4 6.2,-3.5 7.2,-4.5c2.3,-2.6 3.1,-13.6 1.3,-17c-1.7,-3.2 -8.8,-6.8 -15.8,-8.1c-3,-0.6 -5.8,-1.4 -6.3,-1.9c-1.4,-1.4 0.1,-4.7 2.9,-5.9c4.1,-1.9 5.4,-1.5 5.4,1.7c0,2.4 0.6,3.1 4,4.5c6.2,2.5 8.8,2.1 9.6,-1.2c0.3,-1.5 0.7,-3.3 1,-4c0.7,-2.5 -2.4,-7.9 -5.9,-10c-4.2,-2.7 -4.4,-2.6 -13.2,0.3z"/>
    <path fill="#ffffff" id="svg_9" d="m83.2,56.7c-1.3,0.3 -2.7,1.5 -3.2,2.8c-0.5,1.3 -0.6,10.4 -0.1,21l0.7,18.6l3.6,3.5c3,3.1 4.3,3.6 9.5,4.1c6,0.6 10.5,-0.8 13,-3.9c1.6,-1.8 9.5,-38.3 9.1,-41.6c-0.4,-3.9 -4.4,-5.5 -11.3,-4.7c-3,0.4 -5.9,1.3 -6.5,2c-0.7,0.8 -0.6,7.2 0.2,20c1.1,17.4 1,18.9 -0.6,20c-1.9,1.4 -5,1 -6.5,-0.9c-0.7,-0.8 -0.2,-6.8 1.4,-17.6c1.4,-9.1 2.5,-18.2 2.5,-20.3l0,-3.7l-4.7,0.1c-2.7,0.1 -5.8,0.4 -7.1,0.6z"/>
    <path fill="#ffffff" id="svg_10" d="m60.4,59c-11.9,0.8 -14.3,4.4 -15.1,22.4c-0.7,13.8 -0.3,14.9 5.5,18.9c3.2,2.3 5.4,2.8 12.3,3.3c6.7,0.5 9.5,1.2 13.6,3.5c2.9,1.6 5.7,2.9 6.3,2.9c1.8,0 1,-2.6 -2.2,-6.9c-3.1,-4.3 -3.1,-4.4 -4,-21.5c-1.2,-22.8 -1.8,-23.7 -16.4,-22.6zm-2.6,19.9c0.8,0.5 1.2,1.7 1,2.7c-0.3,1.4 -1.2,1.9 -3.7,1.7c-4.2,-0.2 -5.9,-1.7 -4.1,-3.8c1.4,-1.6 4.7,-2 6.8,-0.6zm13.2,0.1c1.2,0.7 1.2,1.3 0.4,2.7c-1.5,2.5 -4,2.8 -7,0.8c-2,-1.3 -2.3,-1.9 -1.3,-3.1c1.3,-1.6 5.7,-1.8 7.9,-0.4z"/>
    <path fill="#ffffff" id="svg_11" d="m122.2,59.7c-1.5,1.4 -3.2,6.8 -6.7,21.7c-2.5,10.9 -4.4,20.4 -4.1,21.2c0.3,0.7 3.5,2.2 7.2,3.4c5.5,1.7 7,1.8 8,0.8c0.6,-0.7 1.7,-6.7 2.3,-13.2c0.6,-6.5 1.4,-12.3 1.7,-12.8c1.4,-2.3 2.2,1.2 2.9,12.6c0.5,8.6 1.1,12.9 2.1,13.6c1.8,1.6 14,0.2 15.5,-1.7c1.8,-2.1 -6.6,-43.1 -9.3,-45.6c-1.6,-1.3 -3.8,-1.7 -9.8,-1.7c-6,0 -8.3,0.4 -9.8,1.7zm10.7,9.2c1.4,0.9 0.7,3.1 -1,3.1c-0.6,0 -0.7,-0.4 -0.4,-1c0.3,-0.6 -0.1,-0.7 -0.9,-0.4c-1.6,0.6 -2.2,-0.7 -0.9,-1.9c0.8,-0.9 1.5,-0.9 3.2,0.2z"/>
    <path fill="#ffffff" id="svg_12" d="m149.7,60.7c-1.4,1.3 -0.6,7.6 3.2,25.3c2.2,10.1 4.6,18.9 5.4,19.7c3.7,3.7 15.3,4.2 21.7,0.9c6.9,-3.5 9.9,-9.1 10.7,-19.7l0.5,-8.4l-3.4,-4.2c-1.8,-2.4 -4.3,-5 -5.5,-5.8c-1.8,-1.2 -28.2,-8.5 -31,-8.5c-0.5,0 -1.3,0.3 -1.6,0.7zm22.3,14.7c0,0.2 -0.7,0.7 -1.6,1c-0.8,0.3 -1.2,0.2 -0.9,-0.4c0.6,-1 2.5,-1.4 2.5,-0.6zm3.7,3.8c-0.3,0.8 -0.6,0.5 -0.6,-0.6c-0.1,-1.1 0.2,-1.7 0.5,-1.3c0.3,0.3 0.4,1.2 0.1,1.9zm-3.7,2c0.8,0.2 2.9,2 4.7,4.1c2.6,3.1 3.1,4.4 2.7,7c-1,5.3 -3.6,8.2 -7.9,8.5c-5.4,0.5 -8.9,-2.9 -8,-7.8c0.8,-4.7 0.8,-7 0,-10c-0.5,-2.2 -0.2,-2.7 2.2,-3.6c2.1,-0.7 3.1,-0.7 3.8,0.2c0.6,0.7 1.7,1.4 2.5,1.6z"/>
    <path fill="#ffffff" id="svg_13" d="m170,83.9c0,0.5 1.5,1.4 3.3,2l3.2,1.1l-2.4,-2c-2.5,-2.1 -4.1,-2.6 -4.1,-1.1z"/>
   </g>
  </g>
 </g>
</svg>